<?xml version="1.0" encoding="utf-8"?>
<!-- Generator: Adobe Illustrator 18.0.0, SVG Export Plug-In . SVG Version: 6.00 Build 0)  -->
<!DOCTYPE svg PUBLIC "-//W3C//DTD SVG 1.1//EN" "http://www.w3.org/Graphics/SVG/1.1/DTD/svg11.dtd">
<svg enable-background="new 0 0 54 54" id="Layer_1" version="1.1" viewBox="0 0 54 54" x="0px"
     xml:space="preserve" xmlns="http://www.w3.org/2000/svg" y="0px">
<g>
	<path d="M27.6,13.9c1,0,1.8-0.8,1.8-1.8v-4c0-1-0.8-1.8-1.8-1.8c-1,0-1.8,0.8-1.8,1.8l0,4
		C25.8,13.1,26.6,13.9,27.6,13.9z" fill="#FFCD57"/>
  <path d="M15.6,17.8c0.7,0.7,1.9,0.7,2.6,0c0.7-0.7,0.7-1.8,0-2.6l-2.8-2.8c-0.7-0.7-1.9-0.7-2.6,0
		c-0.7,0.7-0.7,1.9,0,2.6L15.6,17.8z" fill="#FFCD57"/>
  <path d="M8.4,28.5h4c1,0,1.8-0.8,1.8-1.8c0-1-0.8-1.8-1.8-1.8h-4c-1,0-1.8,0.8-1.8,1.8C6.6,27.7,7.4,28.5,8.4,28.5z
		" fill="#FFCD57"/>
  <path d="M15.6,36.7l-2.8,2.8c-0.7,0.7-0.7,1.9,0,2.6c0.7,0.7,1.8,0.7,2.6,0l2.8-2.8c0.7-0.7,0.7-1.9,0-2.6
		C17.4,36,16.3,36,15.6,36.7z" fill="#FFCD57"/>
  <path d="M25.8,41.9v4c0,1,0.8,1.8,1.8,1.8c1,0,1.8-0.8,1.8-1.8v-4c0-1-0.8-1.8-1.8-1.8
		C26.6,40.1,25.8,40.9,25.8,41.9z" fill="#FFCD57"/>
  <path d="M37,36.8c-0.7,0.7-0.7,1.9,0,2.6l2.8,2.8c0.7,0.7,1.8,0.7,2.6,0c0.7-0.7,0.7-1.9,0-2.6l-2.8-2.8
		C38.9,36.1,37.8,36.1,37,36.8z" fill="#FFCD57"/>
  <path d="M39.8,27.3c0,1,0.8,1.8,1.8,1.8l4,0c1,0,1.8-0.8,1.8-1.8c0-1-0.8-1.8-1.8-1.8l-4,0
		C40.6,25.5,39.8,26.3,39.8,27.3z" fill="#FFCD57"/>
  <path d="M39.6,17.9l2.8-2.8c0.7-0.7,0.7-1.9,0-2.6c-0.7-0.7-1.8-0.7-2.6,0l-2.8,2.8c-0.7,0.7-0.7,1.8,0,2.6
		C37.8,18.6,38.9,18.6,39.6,17.9z" fill="#FFCD57"/>
  <path d="M27.6,38.6c6.2,0,11.2-5,11.2-11.2c0-6.2-5-11.2-11.2-11.2c-6.2,0-11.2,5-11.2,11.2
		C16.4,33.5,21.4,38.6,27.6,38.6z M27.6,19.7c4.2,0,7.6,3.4,7.6,7.7S31.9,35,27.6,35c-4.2,0-7.6-3.4-7.6-7.6S23.4,19.7,27.6,19.7z" fill="#FFCD57"
  />
</g>
</svg>
