<?xml version="1.0" encoding="UTF-8"?>
<!-- Generator: Adobe Illustrator 18.0.0, SVG Export Plug-In . SVG Version: 6.00 Build 0)  -->
<!DOCTYPE svg PUBLIC "-//W3C//DTD SVG 1.1//EN" "http://www.w3.org/Graphics/SVG/1.1/DTD/svg11.dtd">
<svg enable-background="new 0 0 54 54" id="Layer_1" version="1.1" viewBox="0 0 54 54" x="0px" xml:space="preserve" xmlns="http://www.w3.org/2000/svg" y="0px">
<g>
	<path
    d="M10.6,45.8h19.5c1.5,0,3-0.6,4-1.7c0.6-0.6,0.6-1.7,0-2.3c-0.6-0.6-1.7-0.6-2.3,0c-0.5,0.5-1.1,0.7-1.7,0.7   H10.6c-1.3,0-2.4-1.1-2.4-2.4c0-0.9,0.6-1.8,1.4-2.2l0.9-0.4l0-1c0.1-3.3,2.8-5.9,6-5.9c0.9,0,1.7-0.7,1.7-1.6s-0.7-1.6-1.7-1.6   c-4.7,0-8.7,3.6-9.3,8.2c-1.5,1.1-2.4,2.8-2.4,4.7C4.9,43.3,7.5,45.8,10.6,45.8z"
    fill="#498CE8"/>
  <path d="M33.4,32.5c4.7,0,8.6-3.9,8.6-8.6s-3.9-8.6-8.6-8.6s-8.6,3.9-8.6,8.6S28.6,32.5,33.4,32.5z M33.4,18.4   c3,0,5.5,2.5,5.5,5.5s-2.5,5.5-5.5,5.5s-5.5-2.5-5.5-5.5S30.3,18.4,33.4,18.4z" fill="#FFCD57"/>
  <path d="M33.4,14.3c0.9,0,1.5-0.7,1.5-1.5v-3c0-0.9-0.7-1.5-1.5-1.5s-1.5,0.7-1.5,1.5v3   C31.8,13.6,32.5,14.3,33.4,14.3z" fill="#FFCD57"/>
  <path d="M31.8,35v3c0,0.9,0.7,1.5,1.5,1.5s1.5-0.7,1.5-1.5v-3c0-0.9-0.7-1.5-1.5-1.5S31.8,34.2,31.8,35z" fill="#FFCD57"/>
  <path d="M43,23.9c0,0.9,0.7,1.5,1.5,1.5h3c0.9,0,1.5-0.7,1.5-1.5s-0.7-1.5-1.5-1.5h-3C43.7,22.3,43,23,43,23.9z" fill="#FFCD57"/>
  <path d="M19.2,25.4h3c0.9,0,1.5-0.7,1.5-1.5s-0.7-1.5-1.5-1.5h-3c-0.9,0-1.5,0.7-1.5,1.5S18.3,25.4,19.2,25.4z" fill="#FFCD57"/>
  <path d="M41.3,17.5c0.4,0,0.8-0.2,1.1-0.5l2.1-2.1c0.6-0.6,0.6-1.6,0-2.2c-0.6-0.6-1.6-0.6-2.2,0l-2.1,2.1   c-0.6,0.6-0.6,1.6,0,2.2C40.5,17.4,40.9,17.5,41.3,17.5z" fill="#FFCD57"/>
  <path d="M24.4,30.7l-2.1,2.1c-0.6,0.6-0.6,1.6,0,2.2c0.3,0.3,0.7,0.5,1.1,0.5s0.8-0.2,1.1-0.5l2.1-2.1   c0.6-0.6,0.6-1.6,0-2.2C26,30.1,25,30.1,24.4,30.7z" fill="#FFCD57"/>
  <path d="M42.3,30.7c-0.6-0.6-1.6-0.6-2.2,0c-0.6,0.6-0.6,1.6,0,2.2l2.1,2.1c0.3,0.3,0.7,0.5,1.1,0.5   s0.8-0.2,1.1-0.5c0.6-0.6,0.6-1.6,0-2.2L42.3,30.7z" fill="#FFCD57"/>
  <path d="M24.4,17.1c0.3,0.3,0.7,0.5,1.1,0.5s0.8-0.2,1.1-0.5c0.6-0.6,0.6-1.6,0-2.2l-2.1-2.1   c-0.6-0.6-1.6-0.6-2.2,0c-0.6,0.6-0.6,1.6,0,2.2L24.4,17.1z" fill="#FFCD57"/>
</g>
</svg>
