<?xml version="1.0" encoding="UTF-8"?>
<!-- Generator: Adobe Illustrator 18.0.0, SVG Export Plug-In . SVG Version: 6.00 Build 0)  -->
<!DOCTYPE svg PUBLIC "-//W3C//DTD SVG 1.1//EN" "http://www.w3.org/Graphics/SVG/1.1/DTD/svg11.dtd">
<svg enable-background="new 0 0 54 54" id="Layer_1" version="1.1" viewBox="0 0 54 54" x="0px" xml:space="preserve" xmlns="http://www.w3.org/2000/svg" y="0px">
<g>
	<path
    d="M41.3,26.7c-0.2,0-0.4,0-0.6,0c-1.1-4.3-5.1-7.4-9.6-7.4c-0.4,0-0.8,0-1.2,0.1c-2.4-2.1-5.3-3.2-8.5-3.2   c-6.7,0-12.2,5.2-12.8,11.7c-2.2,1.4-3.5,3.8-3.5,6.4c0,2,0.8,3.9,2.2,5.3c0.6,0.6,1.6,0.6,2.2,0c0.6-0.6,0.6-1.6,0-2.2   c-0.8-0.8-1.3-1.9-1.3-3.1c0-1.7,1-3.3,2.6-4l0.9-0.4l0-1c0.1-5.3,4.5-9.6,9.7-9.6c2.6,0,5,1,6.9,2.9l0.6,0.6l0.8-0.2   c0.4-0.1,0.9-0.1,1.4-0.1c3.5,0,6.5,2.8,6.8,6.3l0.2,2l1.9-0.6c0.4-0.1,0.9-0.2,1.3-0.2c2.4,0,4.4,2,4.4,4.4c0,1.2-0.5,2.3-1.3,3.1   c-0.6,0.6-0.6,1.6,0,2.2c0.3,0.3,0.7,0.5,1.1,0.5c0.4,0,0.8-0.2,1.1-0.5c1.4-1.4,2.2-3.3,2.2-5.3C48.9,30.1,45.5,26.7,41.3,26.7z"
    fill="#498CE8"/>
  <path
    d="M38.2,37.7c-0.3-0.6-1.1-0.8-1.6-0.4l-1.7,1v-1.9c0-0.7-0.5-1.2-1.2-1.2c-0.7,0-1.2,0.5-1.2,1.2v1.9l-1.7-1   c-0.6-0.3-1.3-0.1-1.6,0.4c-0.3,0.6-0.1,1.3,0.4,1.6l1.7,1l-1.7,1c-0.6,0.3-0.8,1.1-0.4,1.6c0.3,0.6,1.1,0.8,1.6,0.4l1.7-1v1.9   c0,0.7,0.5,1.2,1.2,1.2c0.7,0,1.2-0.5,1.2-1.2v-1.9l1.7,1c0.6,0.3,1.3,0.1,1.6-0.4c0.3-0.6,0.1-1.3-0.4-1.6l-1.7-1l1.7-1   C38.3,39,38.5,38.3,38.2,37.7z"
    fill="#91BBEA"/>
  <path
    d="M24.7,37.7c-0.3-0.6-1.1-0.8-1.6-0.4l-1.7,1v-1.9c0-0.7-0.5-1.2-1.2-1.2c-0.7,0-1.2,0.5-1.2,1.2v1.9l-1.7-1   c-0.6-0.3-1.3-0.1-1.6,0.4c-0.3,0.6-0.1,1.3,0.4,1.6l1.7,1l-1.7,1c-0.6,0.3-0.8,1.1-0.4,1.6c0.3,0.6,1.1,0.8,1.6,0.4l1.7-1v1.9   c0,0.7,0.5,1.2,1.2,1.2c0.7,0,1.2-0.5,1.2-1.2v-1.9l1.7,1c0.6,0.3,1.3,0.1,1.6-0.4c0.3-0.6,0.1-1.3-0.4-1.6l-1.7-1l1.7-1   C24.8,39,25,38.3,24.7,37.7z"
    fill="#91BBEA"/>
</g>
</svg>
