<?xml version="1.0" encoding="UTF-8"?>
<!-- Generator: Adobe Illustrator 18.0.0, SVG Export Plug-In . SVG Version: 6.00 Build 0)  -->
<!DOCTYPE svg PUBLIC "-//W3C//DTD SVG 1.1//EN" "http://www.w3.org/Graphics/SVG/1.1/DTD/svg11.dtd">
<svg enable-background="new 0 0 54 54" id="Layer_1" version="1.1" viewBox="0 0 54 54" x="0px" xml:space="preserve" xmlns="http://www.w3.org/2000/svg" y="0px">
<g>
	<path
    d="M44,30.7c-0.6-2.3-2.4-5.5-7.6-5.5c-1.4-5.7-5.9-7.1-8.6-7.1l0,0l-2.6-0.6c-2-1.6-5-2.7-7.9-2.7   c-6.8,0-12.3,5.2-12.8,11.9c-2.2,1.3-3.7,3.7-3.7,6.4c0,4.1,3.3,7.4,7.4,7.4h28.6c4.2,0,7.6-3.4,7.6-7.6L44,30.7L44,30.7z    M36.7,37.6H8.8C6,37.6,4,35.6,4,33c0-2.1,1.3-4,3.4-4.6c0.2-10,9-10.5,10-10.5c2.9,0,5.8,1.4,7.6,3.5c3.7-1.2,8.9,1.7,8.3,7.2   c1.5-0.6,2.9-0.5,3.3-0.5c2.1,0,4.6,1.8,4.6,4.8C41.3,35.5,39.3,37.6,36.7,37.6z"
    fill="#498CE8"/>
  <path
    d="M47.3,21.4c-1.3-5.4-6.3-5.6-7.7-5.2c-1.5-1.5-4.1-2.6-6.6-2.6c-3.2,0-6,1.5-7.8,3.9l2.6,0.6l0,0   c2.1-2,4.9-2.2,5.3-2.2c2.2,0,4.3,1.1,5.7,2.7c2.8-0.9,6.7,1.2,6.2,5.4c1.1-0.4,2.2-0.4,2.5-0.4c1.6,0,3.5,1.4,3.5,3.6   c0,1.9-1.6,3.5-3.5,3.5H44l0.3,2.1h3.3c3.2,0,5.7-2.6,5.7-5.7C53.3,27.1,53.3,21.4,47.3,21.4z"
    fill="#91BBEA"/>
</g>
</svg>
