<?xml version="1.0" encoding="UTF-8"?>
<!-- Generator: Adobe Illustrator 18.0.0, SVG Export Plug-In . SVG Version: 6.00 Build 0)  -->
<!DOCTYPE svg PUBLIC "-//W3C//DTD SVG 1.1//EN" "http://www.w3.org/Graphics/SVG/1.1/DTD/svg11.dtd">
<svg enable-background="new 0 0 54 54" id="Layer_1" version="1.1" viewBox="0 0 54 54" x="0px" xml:space="preserve" xmlns="http://www.w3.org/2000/svg" y="0px">
<g>
	<path d="M33.8,19.6c0.7-0.8,1.8-1.3,3-1.3c2.2,0,4,1.8,4,4c0,1.1-0.4,2.1-1.2,2.8c0.1,0.4,0.3,0.8,0.4,1.2   c0.9,0,1.7,0.1,2.5,0.3c0.9-1.2,1.5-2.7,1.5-4.3c0-4-3.2-7.2-7.2-7.2c-2.8,0-5.3,1.6-6.5,4.1C31.2,19.1,32.4,19.2,33.8,19.6z" fill="#FFCD57"/>
  <path d="M36.8,14.1c0.9,0,1.6-0.7,1.6-1.6V11c0-0.9-0.7-1.6-1.6-1.6s-1.6,0.7-1.6,1.6v1.5   C35.2,13.4,35.9,14.1,36.8,14.1z" fill="#FFCD57"/>
  <path d="M45,22.3c0,0.9,0.7,1.6,1.6,1.6h1.5c0.9,0,1.6-0.7,1.6-1.6s-0.7-1.6-1.6-1.6h-1.5   C45.7,20.7,45,21.4,45,22.3z" fill="#FFCD57"/>
  <path d="M43.7,16.9c0.4,0,0.8-0.2,1.1-0.5l1.1-1.1c0.6-0.6,0.6-1.6,0-2.2c-0.6-0.6-1.6-0.6-2.2,0l-1.1,1.1   c-0.6,0.6-0.6,1.6,0,2.2C42.9,16.8,43.3,16.9,43.7,16.9z" fill="#FFCD57"/>
  <path d="M28.8,16.5c0.3,0.3,0.7,0.5,1.1,0.5s0.8-0.2,1.1-0.5c0.6-0.6,0.6-1.6,0-2.2l-1.1-1.1   c-0.6-0.6-1.6-0.6-2.2,0c-0.6,0.6-0.6,1.6,0,2.2L28.8,16.5z" fill="#FFCD57"/>
  <path
    d="M11.7,41.6h28.7c4.2,0,7.6-3.4,7.6-7.6c0,0,0-6-5.5-7.3c-0.7-0.2-1.5-0.3-2.5-0.3c-0.1-0.4-0.2-0.8-0.4-1.2   c-1.2-3.4-3.7-4.9-5.9-5.6c-1.4-0.4-2.7-0.4-3.5-0.3c-0.2,0-0.4,0.1-0.5,0.1c-2-2-5.4-3.5-8.9-3.5c-6.8,0-12.4,5.3-12.9,11.9   c-2.2,1.3-3.7,3.7-3.7,6.4C4.3,38.3,7.6,41.6,11.7,41.6z M11,29.5c0.3-10,9.1-10.6,10.1-10.6c2.9,0,5.8,1.4,7.7,3.5   c3.8-1.2,8.9,1.7,8.3,7.3c1.5-0.6,2.9-0.5,3.4-0.5c2.1,0,4.7,1.8,4.7,4.9c0,2.6-2.1,4.7-4.7,4.7h-28c-2.8,0-4.8-2-4.8-4.6   C7.6,32,8.9,30.2,11,29.5z"
    fill="#498CE8"/>
</g>
</svg>
